<?xml version="1.0" standalone="no"?>
<!DOCTYPE svg PUBLIC "-//W3C//DTD SVG 20010904//EN"
 "http://www.w3.org/TR/2001/REC-SVG-20010904/DTD/svg10.dtd">
<svg version="1.0" xmlns="http://www.w3.org/2000/svg"
 width="198.000000pt" height="198.000000pt" viewBox="0 0 198.000000 198.000000"
 preserveAspectRatio="xMidYMid meet">
<metadata>
Created by potrace 1.14, written by Peter Selinger 2001-2017
</metadata>
<g transform="translate(0.000000,198.000000) scale(0.100000,-0.100000)"
fill="#000000" stroke="none">
<path d="M835 1535 c-82 -23 -104 -37 -174 -106 -42 -42 -72 -100 -89 -174 -3
-11 -7 -197 -9 -412 l-4 -393 99 0 99 0 0 359 c0 346 0 359 21 403 42 85 154
116 243 66 21 -12 37 -24 34 -26 -2 -2 2 -11 10 -19 22 -22 38 -87 31 -126
-10 -53 -46 -99 -99 -127 l-47 -25 0 -71 0 -72 38 5 c55 6 151 56 199 103 65
65 96 139 101 239 3 53 -1 100 -9 125 -7 23 -13 44 -13 48 -1 4 -23 37 -51 73
-41 55 -62 72 -120 101 -84 42 -179 52 -260 29z"/>
<path d="M880 962 c-93 -14 -91 -135 3 -147 41 -5 39 -10 41 82 1 65 -3 71
-44 65z"/>
<path d="M653 413 c-72 -3 -81 -6 -76 -21 4 -9 10 -19 13 -22 4 -3 20 -29 37
-57 l30 -53 23 43 c13 23 32 51 42 61 10 11 18 28 18 38 0 10 -1 17 -2 16 -2
-1 -40 -4 -85 -5z"/>
</g>
</svg>
